<svg xmlns="http://www.w3.org/2000/svg" viewBox="0 0 32 32">
<rect width="32" height="32" rx="6" fill="#2a6496"/>
<g transform="translate(4,4)">
<path d="M5.36 12.05c-1.35-.48-2.03-.72-2.23-1.09a1.25 1.25 0 0 1-.02-.82c.19-.37.85-.64 2.18-1.18L17.84 3.69c1.31-.53 1.97-.8 2.38-.66.36.12.64.4.76.76.14.41-.13 1.07-.66 2.38L15.24 18.71c-.54 1.33-.81 2-1.18 2.18a1.25 1.25 0 0 1-.82-.02c-.36-.2-.6-.87-1.09-2.23l-1.47-4.14a1.87 1.87 0 0 0-.22-.5 1.87 1.87 0 0 0-.25-.25 1.87 1.87 0 0 0-.5-.22l-4.14-1.47Z" fill="#fff"/>
</g>
</svg>
